<svg width="38" height="27" viewBox="0 0 38 27" fill="none" xmlns="http://www.w3.org/2000/svg">
<path d="M12.3125 0C11.0254 0 7.14489 1.51117 6.44869 1.81317C5.75249 2.11518 4.97974 3.05794 4.10291 4.61389C3.22489 6.16985 2.52031 7.98876 1.37553 10.6643C0.23195 13.3399 -0.0348063 18.4981 0.00347265 20.0724C0.0417516 21.6467 0.229558 22.8765 1.91024 23.8078C3.58973 24.7379 5.07543 25.7117 6.63889 26.2973C8.20354 26.883 9.27057 27.3044 9.99548 26.7188C10.7204 26.1331 11.1977 25.1077 11.1977 25.1077C11.1977 25.1077 11.8843 24.1925 10.5876 23.6436C9.2909 23.0936 8.64255 22.7089 8.69877 22.1416C8.75619 21.5744 8.8507 21.2632 9.17487 21.3367C9.49905 21.4102 10.2634 22.7273 13.2001 23.3313C16.1369 23.9353 18.9994 23.8446 18.9994 23.8446C18.9994 23.8446 21.8631 23.9364 24.7999 23.3313C27.7366 22.7273 28.4998 21.4102 28.8239 21.3367C29.1481 21.2632 29.2426 21.5744 29.3 22.1405C29.3574 22.7089 28.7091 23.0936 27.4124 23.6436C26.1157 24.1925 26.8023 25.1077 26.8023 25.1077C26.8023 25.1077 27.2796 26.132 28.0045 26.7188C28.7282 27.3044 29.7965 26.883 31.3599 26.2973C32.9234 25.7117 34.4103 24.7391 36.0898 23.8078C37.7704 22.8765 37.9582 21.6467 37.9965 20.0724C38.0348 18.4992 37.7681 13.3399 36.6233 10.6643C35.4797 7.98876 34.7739 6.16985 33.8959 4.61389C33.0203 3.05794 32.2463 2.11518 31.5513 1.81203C30.8551 1.51117 26.9734 0 25.6863 0C24.3991 0 24.0187 0.861229 24.0187 0.861229L23.5701 1.81317C23.5701 1.81317 20.5557 1.26314 19.0197 1.26199C17.4838 1.26199 14.4299 1.81317 14.4299 1.81317L13.9813 0.860081C13.9813 0.860081 13.6009 0 12.3125 0ZM12.4525 11.4233H12.5004C14.3772 11.4233 15.8976 13 15.8976 14.944C15.8976 16.8893 14.3772 18.4648 12.5004 18.4648C10.6235 18.4648 9.1031 16.8893 9.1031 14.944C9.1019 13.0183 10.5948 11.4498 12.4525 11.4233ZM25.4996 11.4233H25.5475C27.4052 11.4498 28.8969 13.0195 28.8969 14.944C28.8969 16.8893 27.3765 18.4648 25.4996 18.4648C23.6216 18.4648 22.1024 16.8893 22.1024 14.944C22.1024 13 23.6216 11.4233 25.4996 11.4233Z" fill="#FCFCFC"/>
</svg>
