<svg width="55" height="62" viewBox="0 0 55 62" fill="none" xmlns="http://www.w3.org/2000/svg">
<g filter="url(#filter0_d_225_136)">
<path d="M47.1349 14.6856L46.3262 13.1254C46.1466 12.7793 46.1399 12.3637 46.3073 12.0122L47.1727 10.1958C47.5885 9.32237 47.4049 8.28405 46.715 7.61092C46.0251 6.93779 44.9897 6.78654 44.1391 7.23621L42.3692 8.17096C42.0263 8.35219 41.6146 8.359 41.2663 8.19003L39.5679 7.36565C36.0403 5.22908 31.9133 4 27.5 4C14.5208 4 4 14.6188 4 27.719C4 36.1277 9.36908 42.1709 14.8732 47.7262L17.9674 50.7553L23.8387 56.5028C25.8786 58.4991 29.1214 58.4991 31.1613 56.5028L37.0326 50.7553L40.1268 47.7262C45.5661 42.2363 51 36.1277 51 27.719C51 22.9049 49.5771 18.426 47.1362 14.6856H47.1349ZM11.6452 16.239C12.8184 14.5957 14.2373 13.1431 15.8479 11.9359C16.2515 11.6334 16.805 12.0067 16.6835 12.5C16.4 13.6432 16.1476 14.7864 15.9275 15.9283C15.8857 16.1436 15.7196 16.3112 15.505 16.3521C14.4047 16.5633 13.3044 16.8058 12.2028 17.077C11.7195 17.1955 11.3536 16.645 11.6439 16.2376L11.6452 16.239ZM10.0144 36.3811C8.90061 34.1192 8.20805 31.6106 8.03794 28.9562C8.01769 28.6428 8.26745 28.3771 8.57931 28.3826C10.4802 28.4139 12.381 28.4439 14.2818 28.4657C14.5694 28.4684 14.8003 28.7028 14.807 28.993C14.861 31.6447 15.0878 34.295 15.4861 36.9466C15.5401 37.3077 15.2323 37.6211 14.8745 37.5611C13.3746 37.3091 11.8747 37.0093 10.3748 36.6659C10.2182 36.6305 10.0859 36.5256 10.0144 36.3811ZM15.8155 43.3863C14.2616 42.2172 12.8873 40.8192 11.7424 39.2413C11.4468 38.8352 11.814 38.2806 12.2986 38.3992C13.3679 38.6608 14.4371 38.8965 15.5063 39.1009C15.7196 39.1418 15.887 39.3094 15.9289 39.5247C16.1408 40.6243 16.3825 41.7239 16.6525 42.8236C16.774 43.3155 16.2191 43.6888 15.8168 43.3863H15.8155ZM16.4932 26.415C16.5431 23.593 16.7537 20.7724 17.125 17.9504C17.1561 17.7092 17.3464 17.5185 17.5854 17.4871C20.3813 17.1192 23.1772 16.908 25.9745 16.8549C26.2742 16.8494 26.5185 17.0961 26.5158 17.3986C26.4848 20.3922 26.4659 23.3845 26.4618 26.3782C26.4618 26.6739 26.2242 26.9137 25.9313 26.9137C22.9652 26.9178 19.9979 26.9328 17.0319 26.96C16.7335 26.9627 16.4891 26.7161 16.4945 26.415H16.4932ZM18.7275 31.8981L17.8014 30.1117C17.6677 29.8542 17.7109 29.5517 17.9121 29.3419C18.1132 29.132 18.4102 29.0789 18.6708 29.2056L20.4704 30.079C21.2615 30.4633 22.1984 30.447 22.976 30.0368L24.7459 29.1021C25.0024 28.9672 25.3008 29.0108 25.5087 29.2138C25.7166 29.4168 25.7693 29.7166 25.6437 29.9796L24.7783 31.7959C24.3976 32.5944 24.4138 33.5401 24.8202 34.3249L25.7463 36.1113C25.88 36.3689 25.8368 36.6714 25.637 36.8812C25.4358 37.091 25.1388 37.1442 24.8782 37.0175L23.0786 36.144C22.2875 35.7598 21.3506 35.7761 20.573 36.1863L18.8031 37.121C18.7045 37.1728 18.5992 37.1987 18.4953 37.1987C18.3306 37.1987 18.1686 37.1347 18.0403 37.0107C17.8324 36.8076 17.7798 36.5078 17.9053 36.2449L18.7707 34.4285C19.1514 33.63 19.1352 32.6844 18.7288 31.8995L18.7275 31.8981ZM26.0771 47.2139C23.4526 47.0354 20.9726 46.3309 18.7369 45.2027C18.5952 45.1318 18.4926 44.9983 18.4575 44.843C18.0984 43.2841 17.7865 41.7253 17.5246 40.1678C17.4639 39.8081 17.773 39.4961 18.1308 39.5492C20.762 39.943 23.3946 40.1678 26.0258 40.2264C26.312 40.2332 26.5428 40.4649 26.5469 40.7551C26.5739 42.7254 26.6076 44.6958 26.6468 46.6661C26.6535 46.9823 26.3889 47.2343 26.0771 47.2139ZM28.6745 8.12872C31.2841 8.29904 33.7547 8.98853 35.9822 10.0991C36.1253 10.1699 36.228 10.3034 36.2644 10.4601C36.6357 12.0667 36.9556 13.6718 37.2243 15.2783C37.2837 15.6381 36.9759 15.9488 36.6181 15.8956C33.9869 15.5045 31.3543 15.2811 28.7231 15.2252C28.4356 15.2198 28.2047 14.9867 28.202 14.6965C28.1764 12.6894 28.144 10.6823 28.1075 8.67512C28.1021 8.36036 28.364 8.10828 28.6759 8.12872H28.6745ZM37.2243 40.176C36.9637 41.7416 36.6519 43.3073 36.2928 44.8729C36.2563 45.0296 36.1537 45.1632 36.0106 45.234C33.7763 46.3514 31.2963 47.0477 28.6759 47.218C28.364 47.2384 28.1021 46.9863 28.1075 46.6716C28.144 44.6999 28.175 42.7282 28.2007 40.7578C28.2047 40.4676 28.4356 40.2346 28.7218 40.2291C31.353 40.1733 33.9856 39.9498 36.6168 39.5587C36.9745 39.5056 37.2823 39.8163 37.2229 40.176H37.2243ZM37.6198 37.5121C37.5888 37.7533 37.3984 37.944 37.1595 37.9754C34.3636 38.3406 31.5663 38.5504 28.7704 38.6008C28.4707 38.6063 28.2277 38.3596 28.2304 38.0585C28.2601 35.0648 28.2763 32.0712 28.2803 29.0775C28.2803 28.7818 28.5179 28.542 28.8109 28.542C31.7769 28.5379 34.7443 28.5229 37.7103 28.4957C38.0086 28.493 38.253 28.7396 38.2476 29.0407C38.1976 31.8641 37.9884 34.6888 37.6198 37.5121ZM37.7103 26.96C34.7443 26.9328 31.7769 26.9178 28.8109 26.9137C28.5179 26.9137 28.2803 26.6739 28.2803 26.3782C28.2763 23.3845 28.2601 20.3909 28.2304 17.3972C28.2277 17.0947 28.472 16.8494 28.7704 16.8549C31.5663 16.9067 34.3636 17.1151 37.1595 17.4803C37.3984 17.5117 37.5888 17.7024 37.6198 17.9436C37.9897 20.7669 38.199 23.5916 38.2476 26.415C38.253 26.7161 38.0086 26.9627 37.7103 26.96ZM38.6135 16.7309C38.4488 16.7309 38.2867 16.6668 38.1585 16.5429C37.9506 16.3398 37.8979 16.04 38.0235 15.7771L38.8889 13.9607C39.2696 13.1622 39.2534 12.2166 38.847 11.4317L37.9209 9.6453C37.7872 9.38777 37.8304 9.08527 38.0302 8.87543C38.2314 8.66559 38.5284 8.61244 38.789 8.73917L40.5886 9.6126C41.3797 9.99686 42.3166 9.98051 43.0942 9.57036L44.8641 8.63561C45.1193 8.50071 45.419 8.54431 45.6269 8.74598C45.8348 8.94901 45.8874 9.24878 45.7619 9.51177L44.8965 11.3281C44.5158 12.1266 44.532 13.0723 44.9384 13.8571L45.8645 15.6435C45.9981 15.9011 45.9549 16.2036 45.7551 16.4134C45.554 16.6232 45.257 16.6764 44.9964 16.5497L43.1968 15.6762C42.4057 15.292 41.4688 15.3083 40.6912 15.7185L38.9213 16.6532C38.8227 16.705 38.7174 16.7309 38.6135 16.7309ZM44.7926 36.3811C44.721 36.5256 44.5887 36.6291 44.4321 36.6659C42.9322 37.0093 41.4323 37.3077 39.9324 37.5611C39.5747 37.6211 39.2669 37.3091 39.3209 36.9466C39.7191 34.295 39.9459 31.6447 39.9999 28.993C40.0053 28.7028 40.2375 28.4698 40.5251 28.4657C42.4259 28.4439 44.3268 28.4153 46.2276 28.3826C46.5395 28.3771 46.7893 28.6428 46.769 28.9562C46.5989 31.6093 45.9063 34.1192 44.7926 36.3811ZM46.2344 27.0718C44.3308 27.0391 42.4273 27.0104 40.5251 26.9886C40.2375 26.9859 40.0067 26.7515 39.9999 26.4613C39.9459 23.8097 39.7191 21.1594 39.3209 18.5077C39.2669 18.1466 39.5747 17.8332 39.9324 17.8932C41.4512 18.1494 42.9714 18.4532 44.4901 18.8021C44.6468 18.8375 44.7818 18.9438 44.852 19.0896C45.9455 21.3501 46.6205 23.8546 46.7757 26.4995C46.7946 26.8129 46.5449 27.0758 46.2344 27.0704V27.0718Z" fill="url(#paint0_linear_225_136)"/>
</g>
<defs>
<filter id="filter0_d_225_136" x="0" y="0" width="55" height="62" filterUnits="userSpaceOnUse" color-interpolation-filters="sRGB">
<feFlood flood-opacity="0" result="BackgroundImageFix"/>
<feColorMatrix in="SourceAlpha" type="matrix" values="0 0 0 0 0 0 0 0 0 0 0 0 0 0 0 0 0 0 127 0" result="hardAlpha"/>
<feOffset/>
<feGaussianBlur stdDeviation="2"/>
<feComposite in2="hardAlpha" operator="out"/>
<feColorMatrix type="matrix" values="0 0 0 0 0.411765 0 0 0 0 0.478431 0 0 0 0 0.87451 0 0 0 1 0"/>
<feBlend mode="normal" in2="BackgroundImageFix" result="effect1_dropShadow_225_136"/>
<feBlend mode="normal" in="SourceGraphic" in2="effect1_dropShadow_225_136" result="shape"/>
</filter>
<linearGradient id="paint0_linear_225_136" x1="27.5" y1="4" x2="27.5" y2="58" gradientUnits="userSpaceOnUse">
<stop stop-color="#C663CC"/>
<stop offset="1" stop-color="#697ADF"/>
</linearGradient>
</defs>
</svg>
