<svg width="47" height="54" viewBox="0 0 47 54" fill="none" xmlns="http://www.w3.org/2000/svg">
<path d="M43.1349 10.6856L42.3262 9.12542C42.1466 8.77931 42.1399 8.36372 42.3073 8.01216L43.1727 6.1958C43.5885 5.32237 43.4049 4.28405 42.715 3.61092C42.0251 2.93779 40.9897 2.78654 40.1391 3.23621L38.3692 4.17096C38.0263 4.35219 37.6146 4.359 37.2663 4.19003L35.5679 3.36565C32.0403 1.22908 27.9133 0 23.5 0C10.5208 0 0 10.6188 0 23.719C0 32.1277 5.36908 38.1709 10.8732 43.7262L13.9674 46.7553L19.8387 52.5028C21.8786 54.4991 25.1214 54.4991 27.1613 52.5028L33.0326 46.7553L36.1268 43.7262C41.5661 38.2363 47 32.1277 47 23.719C47 18.9049 45.5771 14.426 43.1362 10.6856H43.1349Z" fill="url(#paint0_radial_237_2)"/>
<path d="M43.1349 10.6856L42.3262 9.12542C42.1466 8.77931 42.1399 8.36372 42.3073 8.01216L43.1727 6.1958C43.5885 5.32237 43.4049 4.28405 42.715 3.61092C42.0251 2.93779 40.9897 2.78654 40.1391 3.23621L38.3692 4.17096C38.0263 4.35219 37.6146 4.359 37.2663 4.19003L35.5679 3.36565C32.0403 1.22908 27.9133 0 23.5 0C10.5208 0 0 10.6188 0 23.719C0 32.1277 5.36908 38.1709 10.8732 43.7262L13.9674 46.7553L19.8387 52.5028C21.8786 54.4991 25.1214 54.4991 27.1613 52.5028L33.0326 46.7553L36.1268 43.7262C41.5661 38.2363 47 32.1277 47 23.719C47 18.9049 45.5771 14.426 43.1362 10.6856H43.1349ZM7.64523 12.239C8.81841 10.5957 10.2373 9.14313 11.8479 7.93586C12.2515 7.63336 12.805 8.00671 12.6835 8.49998C12.4 9.64321 12.1476 10.7864 11.9275 11.9283C11.8857 12.1436 11.7196 12.3112 11.505 12.3521C10.4047 12.5633 9.30442 12.8058 8.20279 13.077C7.71948 13.1955 7.35362 12.645 7.64388 12.2376L7.64523 12.239ZM6.01439 32.3811C4.90061 30.1192 4.20805 27.6106 4.03794 24.9562C4.01769 24.6428 4.26745 24.3771 4.57931 24.3826C6.48015 24.4139 8.381 24.4439 10.2818 24.4657C10.5694 24.4684 10.8003 24.7028 10.807 24.993C10.861 27.6447 11.0878 30.295 11.4861 32.9466C11.5401 33.3077 11.2323 33.6211 10.8745 33.5611C9.37462 33.3091 7.87473 33.0093 6.37485 32.6659C6.21825 32.6305 6.08594 32.5256 6.01439 32.3811ZM11.8155 39.3863C10.2616 38.2172 8.88726 36.8192 7.74243 35.2413C7.44677 34.8352 7.81398 34.2806 8.29864 34.3992C9.36787 34.6608 10.4371 34.8965 11.5063 35.1009C11.7196 35.1418 11.887 35.3094 11.9289 35.5247C12.1408 36.6243 12.3825 37.7239 12.6525 38.8236C12.774 39.3155 12.2191 39.6888 11.8168 39.3863H11.8155ZM12.4932 22.415C12.5431 19.593 12.7537 16.7724 13.125 13.9504C13.1561 13.7092 13.3464 13.5185 13.5854 13.4871C16.3813 13.1192 19.1772 12.908 21.9745 12.8549C22.2742 12.8494 22.5185 13.0961 22.5158 13.3986C22.4848 16.3922 22.4659 19.3845 22.4618 22.3782C22.4618 22.6739 22.2242 22.9137 21.9313 22.9137C18.9652 22.9178 15.9979 22.9328 13.0319 22.96C12.7335 22.9627 12.4891 22.7161 12.4945 22.415H12.4932ZM14.7275 27.8981L13.8014 26.1117C13.6677 25.8542 13.7109 25.5517 13.9121 25.3419C14.1132 25.132 14.4102 25.0789 14.6708 25.2056L16.4704 26.079C17.2615 26.4633 18.1984 26.447 18.976 26.0368L20.7459 25.1021C21.0024 24.9672 21.3008 25.0108 21.5087 25.2138C21.7166 25.4168 21.7693 25.7166 21.6437 25.9796L20.7783 27.7959C20.3976 28.5944 20.4138 29.5401 20.8202 30.3249L21.7463 32.1113C21.88 32.3689 21.8368 32.6714 21.637 32.8812C21.4358 33.091 21.1388 33.1442 20.8782 33.0175L19.0786 32.144C18.2875 31.7598 17.3506 31.7761 16.573 32.1863L14.8031 33.121C14.7045 33.1728 14.5992 33.1987 14.4953 33.1987C14.3306 33.1987 14.1686 33.1347 14.0403 33.0107C13.8324 32.8076 13.7798 32.5078 13.9053 32.2449L14.7707 30.4285C15.1514 29.63 15.1352 28.6844 14.7288 27.8995L14.7275 27.8981ZM22.0771 43.2139C19.4526 43.0354 16.9726 42.3309 14.7369 41.2027C14.5952 41.1318 14.4926 40.9983 14.4575 40.843C14.0984 39.2841 13.7865 37.7253 13.5246 36.1678C13.4639 35.8081 13.773 35.4961 14.1308 35.5492C16.762 35.943 19.3946 36.1678 22.0258 36.2264C22.312 36.2332 22.5428 36.4649 22.5469 36.7551C22.5739 38.7254 22.6076 40.6958 22.6468 42.6661C22.6535 42.9823 22.3889 43.2343 22.0771 43.2139ZM24.6745 4.12872C27.2841 4.29904 29.7547 4.98853 31.9822 6.09905C32.1253 6.16991 32.228 6.30345 32.2644 6.46015C32.6357 8.06667 32.9556 9.67182 33.2243 11.2783C33.2837 11.6381 32.9759 11.9488 32.6181 11.8956C29.9869 11.5045 27.3543 11.2811 24.7231 11.2252C24.4356 11.2198 24.2047 10.9867 24.202 10.6965C24.1764 8.68938 24.144 6.68225 24.1075 4.67512C24.1021 4.36036 24.364 4.10828 24.6759 4.12872H24.6745ZM33.2243 36.176C32.9637 37.7416 32.6519 39.3073 32.2928 40.8729C32.2563 41.0296 32.1537 41.1632 32.0106 41.234C29.7763 42.3514 27.2963 43.0477 24.6759 43.218C24.364 43.2384 24.1021 42.9863 24.1075 42.6716C24.144 40.6999 24.175 38.7282 24.2007 36.7578C24.2047 36.4676 24.4356 36.2346 24.7218 36.2291C27.353 36.1733 29.9856 35.9498 32.6168 35.5587C32.9745 35.5056 33.2823 35.8163 33.2229 36.176H33.2243ZM33.6198 33.5121C33.5888 33.7533 33.3984 33.944 33.1595 33.9754C30.3636 34.3406 27.5663 34.5504 24.7704 34.6008C24.4707 34.6063 24.2277 34.3596 24.2304 34.0585C24.2601 31.0648 24.2763 28.0712 24.2803 25.0775C24.2803 24.7818 24.5179 24.542 24.8109 24.542C27.7769 24.5379 30.7443 24.5229 33.7103 24.4957C34.0086 24.493 34.253 24.7396 34.2476 25.0407C34.1976 27.8641 33.9884 30.6888 33.6198 33.5121ZM33.7103 22.96C30.7443 22.9328 27.7769 22.9178 24.8109 22.9137C24.5179 22.9137 24.2803 22.6739 24.2803 22.3782C24.2763 19.3845 24.2601 16.3909 24.2304 13.3972C24.2277 13.0947 24.472 12.8494 24.7704 12.8549C27.5663 12.9067 30.3636 13.1151 33.1595 13.4803C33.3984 13.5117 33.5888 13.7024 33.6198 13.9436C33.9897 16.7669 34.199 19.5916 34.2476 22.415C34.253 22.7161 34.0086 22.9627 33.7103 22.96ZM34.6135 12.7309C34.4488 12.7309 34.2867 12.6668 34.1585 12.5429C33.9506 12.3398 33.8979 12.04 34.0235 11.7771L34.8889 9.9607C35.2696 9.16221 35.2534 8.21655 34.847 7.43169L33.9209 5.6453C33.7872 5.38777 33.8304 5.08527 34.0302 4.87543C34.2314 4.66559 34.5284 4.61244 34.789 4.73917L36.5886 5.6126C37.3797 5.99686 38.3166 5.98051 39.0942 5.57036L40.8641 4.63561C41.1193 4.50071 41.419 4.54431 41.6269 4.74598C41.8348 4.94901 41.8874 5.24878 41.7619 5.51177L40.8965 7.32813C40.5158 8.12662 40.532 9.07227 40.9384 9.85714L41.8645 11.6435C41.9981 11.9011 41.9549 12.2036 41.7551 12.4134C41.554 12.6232 41.257 12.6764 40.9964 12.5497L39.1968 11.6762C38.4057 11.292 37.4688 11.3083 36.6912 11.7185L34.9213 12.6532C34.8227 12.705 34.7174 12.7309 34.6135 12.7309ZM40.7926 32.3811C40.721 32.5256 40.5887 32.6291 40.4321 32.6659C38.9322 33.0093 37.4323 33.3077 35.9324 33.5611C35.5747 33.6211 35.2669 33.3091 35.3209 32.9466C35.7191 30.295 35.9459 27.6447 35.9999 24.993C36.0053 24.7028 36.2375 24.4698 36.5251 24.4657C38.4259 24.4439 40.3268 24.4153 42.2276 24.3826C42.5395 24.3771 42.7893 24.6428 42.769 24.9562C42.5989 27.6093 41.9063 30.1192 40.7926 32.3811ZM42.2344 23.0718C40.3308 23.0391 38.4273 23.0104 36.5251 22.9886C36.2375 22.9859 36.0067 22.7515 35.9999 22.4613C35.9459 19.8097 35.7191 17.1594 35.3209 14.5077C35.2669 14.1466 35.5747 13.8332 35.9324 13.8932C37.4512 14.1494 38.9714 14.4532 40.4901 14.8021C40.6468 14.8375 40.7818 14.9438 40.852 15.0896C41.9455 17.3501 42.6205 19.8546 42.7757 22.4995C42.7946 22.8129 42.5449 23.0758 42.2344 23.0704V23.0718Z" fill="url(#paint1_radial_237_2)"/>
<defs>
<radialGradient id="paint0_radial_237_2" cx="0" cy="0" r="1" gradientUnits="userSpaceOnUse" gradientTransform="translate(23.5 27) rotate(90) scale(46 40.037)">
<stop offset="0.245" stop-color="#8899FF"/>
<stop offset="1" stop-color="#415AC8"/>
</radialGradient>
<radialGradient id="paint1_radial_237_2" cx="0" cy="0" r="1" gradientUnits="userSpaceOnUse" gradientTransform="translate(22.5 19) rotate(90) scale(55 116.286)">
<stop offset="0.165" stop-color="#4136CC"/>
<stop offset="1" stop-color="#8359C7"/>
</radialGradient>
</defs>
</svg>
