<svg width="94" height="107" viewBox="0 0 94 107" fill="none" xmlns="http://www.w3.org/2000/svg">
<path d="M86.2697 21.1733L84.6524 18.0818C84.2933 17.396 84.2798 16.5726 84.6146 15.876L86.3453 12.2769C87.1769 10.5462 86.8097 8.48877 85.43 7.15498C84.0503 5.82118 81.9793 5.52148 80.2783 6.41248L76.7385 8.26468C76.0527 8.62377 75.2292 8.63727 74.5325 8.30248L71.1359 6.66898C64.0806 2.43539 55.8265 0 47 0C21.0416 0 0 21.041 0 46.9988C0 63.6604 10.7382 75.6349 21.7463 86.6427L27.9349 92.6448L39.6774 104.033C43.7572 107.989 50.2428 107.989 54.3226 104.033L66.0651 92.6448L72.2537 86.6427C83.1322 75.7645 94 63.6604 94 46.9988C94 37.4597 91.1541 28.5848 86.2724 21.1733H86.2697ZM15.2905 24.2513C17.6368 20.9951 20.4746 18.1169 23.6958 15.7248C24.5031 15.1254 25.6101 15.8652 25.3671 16.8426C24.8001 19.1078 24.2952 21.3731 23.8551 23.6357C23.7714 24.0623 23.4392 24.3944 23.0099 24.4754C20.8094 24.8939 18.6088 25.3745 16.4056 25.9118C15.439 26.1467 14.7072 25.0559 15.2878 24.2486L15.2905 24.2513ZM12.0288 64.1626C9.80123 59.6806 8.4161 54.7099 8.07589 49.4503C8.03539 48.8293 8.5349 48.3029 9.15861 48.3137C12.9603 48.3758 16.762 48.4352 20.5637 48.4784C21.1388 48.4838 21.6005 48.9482 21.614 49.5233C21.722 54.7774 22.1756 60.0289 22.9721 65.2831C23.0801 65.9986 22.4645 66.6196 21.749 66.5008C18.7492 66.0013 15.7495 65.4073 12.7497 64.7269C12.4365 64.6567 12.1719 64.4488 12.0288 64.1626ZM23.631 78.0433C20.5232 75.7267 17.7745 72.9565 15.4849 69.8299C14.8935 69.0253 15.628 67.9264 16.5973 68.1613C18.7357 68.6797 20.8742 69.1468 23.0126 69.5518C23.4392 69.6328 23.7741 69.9649 23.8578 70.3915C24.2817 72.5704 24.765 74.7493 25.305 76.9282C25.548 77.9029 24.4383 78.6427 23.6337 78.0433H23.631ZM24.9864 44.4149C25.0863 38.8232 25.5075 33.2342 26.25 27.6425C26.3121 27.1646 26.6928 26.7866 27.1707 26.7245C32.7626 25.9955 38.3544 25.577 43.9489 25.4717C44.5483 25.4609 45.0371 25.9496 45.0317 26.549C44.9696 32.4809 44.9318 38.4101 44.9236 44.342C44.9236 44.9279 44.4484 45.4031 43.8625 45.4031C37.9305 45.4112 31.9957 45.4409 26.0637 45.4949C25.467 45.5003 24.9783 45.0116 24.9891 44.4149H24.9864ZM29.455 55.2796L27.6027 51.7399C27.3354 51.2296 27.4218 50.6302 27.8242 50.2144C28.2265 49.7986 28.8205 49.6934 29.3416 49.9445L32.9408 51.6751C34.523 52.4365 36.3969 52.4041 37.9521 51.5914L41.4919 49.7393C42.0049 49.472 42.6016 49.5583 43.0174 49.9606C43.4332 50.3629 43.5385 50.957 43.2874 51.4781L41.5567 55.0771C40.7953 56.6593 40.8277 58.5331 41.6404 60.0883L43.4926 63.628C43.7599 64.1383 43.6735 64.7377 43.2739 65.1535C42.8716 65.5693 42.2776 65.6746 41.7565 65.4235L38.1573 63.6928C36.5751 62.9314 34.7012 62.9638 33.146 63.7765L29.6062 65.6287C29.4091 65.7313 29.1985 65.7826 28.9906 65.7826C28.6612 65.7826 28.3372 65.6557 28.0807 65.41C27.6648 65.0077 27.5595 64.4137 27.8106 63.8926L29.5414 60.2935C30.3028 58.7113 30.2704 56.8375 29.4577 55.2823L29.455 55.2796ZM44.1541 85.6275C38.9052 85.2738 33.9452 83.878 29.4739 81.6424C29.1904 81.502 28.9852 81.2374 28.915 80.9296C28.1968 77.8408 27.573 74.752 27.0492 71.6659C26.9277 70.9531 27.546 70.3348 28.2616 70.4401C33.524 71.2204 38.7891 71.6659 44.0515 71.782C44.6239 71.7955 45.0857 72.2545 45.0938 72.8296C45.1478 76.7338 45.2153 80.638 45.2936 84.5421C45.3071 85.1685 44.7778 85.6681 44.1541 85.6275ZM49.3491 8.18098C54.5683 8.51847 59.5094 9.88467 63.9645 12.0852C64.2507 12.2256 64.4559 12.4902 64.5288 12.8007C65.2713 15.984 65.9112 19.1645 66.4486 22.3478C66.5674 23.0606 65.9517 23.6762 65.2362 23.5709C59.9738 22.796 54.7087 22.3532 49.4463 22.2425C48.8711 22.2317 48.4094 21.77 48.404 21.1949C48.3527 17.2178 48.2879 13.2408 48.215 9.26367C48.2042 8.63997 48.728 8.14048 49.3518 8.18098H49.3491ZM66.4486 71.6821C65.9274 74.7844 65.3037 77.8867 64.5855 80.989C64.5126 81.2995 64.3074 81.5641 64.0212 81.7045C59.5526 83.9184 54.5926 85.2981 49.3518 85.6356C48.728 85.6761 48.2042 85.1767 48.215 84.5529C48.2879 80.6461 48.35 76.7392 48.4013 72.835C48.4094 72.2599 48.8711 71.7982 49.4436 71.7874C54.706 71.6767 59.9711 71.2339 65.2335 70.459C65.949 70.3537 66.5647 70.9693 66.4458 71.6821H66.4486ZM67.2397 66.4036C67.1776 66.8815 66.7969 67.2595 66.3189 67.3216C60.7271 68.0452 55.1326 68.461 49.5408 68.5609C48.9413 68.5717 48.4553 68.083 48.4607 67.4863C48.5201 61.5544 48.5525 55.6225 48.5606 49.6907C48.5606 49.1048 49.0358 48.6296 49.6218 48.6296C55.5538 48.6215 61.4885 48.5918 67.4206 48.5378C68.0173 48.5324 68.506 49.0211 68.4952 49.6178C68.3953 55.2121 67.9768 60.8092 67.2397 66.4036ZM67.4206 45.4949C61.4885 45.4409 55.5538 45.4112 49.6218 45.4031C49.0358 45.4031 48.5606 44.9279 48.5606 44.342C48.5525 38.4101 48.5201 32.4782 48.4607 26.5463C48.4553 25.9469 48.944 25.4609 49.5408 25.4717C55.1326 25.5743 60.7271 25.9874 66.3189 26.711C66.7969 26.7731 67.1776 27.1511 67.2397 27.629C67.9795 33.2234 68.398 38.8205 68.4952 44.4149C68.506 45.0116 68.0173 45.5003 67.4206 45.4949ZM69.2269 25.226C68.8975 25.226 68.5735 25.0991 68.317 24.8534C67.9012 24.4511 67.7959 23.8571 68.047 23.336L69.7777 19.7369C70.5391 18.1547 70.5067 16.281 69.694 14.7258L67.8418 11.1861C67.5745 10.6758 67.6609 10.0764 68.0605 9.66057C68.4628 9.24477 69.0568 9.13947 69.5779 9.39057L73.1771 11.1213C74.7593 11.8827 76.6332 11.8503 78.1884 11.0376L81.7282 9.18537C82.2385 8.91807 82.8379 9.00447 83.2537 9.40407C83.6696 9.80637 83.7749 10.4004 83.5238 10.9215L81.793 14.5206C81.0316 16.1028 81.064 17.9765 81.8767 19.5317L83.729 23.0714C83.9963 23.5817 83.9099 24.1811 83.5103 24.5969C83.1079 25.0127 82.5139 25.118 81.9928 24.8669L78.3936 23.1362C76.8114 22.3748 74.9376 22.4072 73.3823 23.2199L69.8425 25.0721C69.6454 25.1747 69.4348 25.226 69.2269 25.226ZM81.5851 64.1626C81.442 64.4488 81.1774 64.654 80.8642 64.7269C77.8644 65.4073 74.8646 65.9986 71.8649 66.5008C71.1494 66.6196 70.5338 66.0013 70.6418 65.2831C71.4383 60.0289 71.8919 54.7774 71.9999 49.5233C72.0107 48.9482 72.4751 48.4865 73.0502 48.4784C76.8519 48.4352 80.6536 48.3785 84.4553 48.3137C85.079 48.3029 85.5785 48.8293 85.538 49.4503C85.1978 54.7072 83.8127 59.6806 81.5851 64.1626ZM84.4688 45.7163C80.6617 45.6515 76.8546 45.5948 73.0502 45.5516C72.4751 45.5462 72.0134 45.0818 71.9999 44.5067C71.8919 39.2525 71.4383 34.001 70.6418 28.7468C70.5338 28.0313 71.1494 27.4103 71.8649 27.5291C74.9025 28.0367 77.9427 28.6388 80.9803 29.33C81.2935 29.4002 81.5635 29.6108 81.7039 29.8997C83.891 34.379 85.241 39.3416 85.5515 44.5823C85.5893 45.2033 85.0898 45.7244 84.4688 45.7136V45.7163Z" fill="#D9D9D9"/>
</svg>
