<svg width="107" height="107" viewBox="0 0 107 107" fill="none" xmlns="http://www.w3.org/2000/svg">
<path fill-rule="evenodd" clip-rule="evenodd" d="M1.66146 1.66256C0.0615855 3.26282 0 3.66306 0 12.4655C0 17.9794 0.312666 22.2939 0.788432 23.3382C1.94096 25.8703 5.21312 26.5665 14.7156 26.3024C22.2426 26.0931 23.1129 25.936 24.5158 24.5321C25.9188 23.1283 26.0758 22.2574 26.2849 14.7254C26.5488 5.21659 25.8531 1.94225 23.3227 0.788956C22.2791 0.312874 17.9674 0 12.4572 0C3.66063 0 3.26066 0.0616265 1.66146 1.66256ZM29.3953 0.885798C29.2085 1.37339 29.1422 5.41095 29.2478 9.8589L29.4393 17.9462L31.3004 18.1602C32.7358 18.3261 33.1615 18.7352 33.1615 19.9501C33.1615 21.5226 34.7634 22.6928 35.9295 21.9716C36.2685 21.7623 36.5453 20.8474 36.5453 19.9379C36.5453 18.3857 36.772 18.2848 40.2675 18.2848H43.9898V14.5601C43.9898 11.0386 43.8977 10.8354 42.2978 10.8354C40.9443 10.8354 40.6059 11.1741 40.6059 12.5285C40.6059 13.9581 40.2899 14.2215 38.5756 14.2215C36.8614 14.2215 36.5453 13.9581 36.5453 12.5285C36.5453 11.1741 36.207 10.8354 34.8534 10.8354C33.1899 10.8354 33.1615 10.7454 33.1615 5.41772C33.1615 0.0724619 33.1385 0 31.4486 0C30.5059 0 29.5821 0.39888 29.3953 0.885798ZM44.4696 0.422583C44.2056 0.686697 43.9898 1.44585 43.9898 2.10885C43.9898 3.08607 43.3164 3.35425 40.4428 3.52016C37.6018 3.68405 36.8485 3.97796 36.6543 4.99785C36.2936 6.89473 37.71 7.4277 43.1438 7.43921L48.0503 7.44937V12.8671C48.0503 18.1947 48.0788 18.2848 49.7423 18.2848C51.4051 18.2848 51.4342 18.192 51.4342 12.9023V7.52047L54.9872 7.31528L58.5402 7.11076L58.7446 3.55538L58.9497 0H55.1916C51.6352 0 51.4342 0.0907469 51.4342 1.69304C51.4342 4.02063 48.2561 4.17435 47.9285 1.86234C47.7147 0.358247 45.4685 -0.576987 44.4696 0.422583ZM66.323 1.64834C66.323 3.06237 65.9995 3.38608 64.5864 3.38608C63.0908 3.38608 62.879 3.64477 63.0637 5.24842C63.2153 6.57034 63.7114 7.17239 64.7725 7.3234C66.1464 7.51912 66.2838 7.95863 66.4645 12.7411C66.6465 17.5534 66.7764 17.9625 68.1841 18.1629C69.093 18.2916 69.7068 18.851 69.7068 19.5512C69.7068 21.0519 71.0022 22.3481 72.5019 22.3481C73.2017 22.3481 73.7607 22.9623 73.8892 23.8718C74.0483 24.9879 74.5586 25.3956 75.7977 25.3956C77.3766 25.3956 77.4896 25.1701 77.4896 22.0095C77.4896 18.8374 77.3746 18.6099 75.6698 18.4128C74.2628 18.2503 73.8019 17.7891 73.6395 16.3812C73.49 15.089 72.9864 14.4971 71.9063 14.3434C69.5958 14.0156 69.7495 10.8354 72.0755 10.8354C73.4182 10.8354 73.7674 11.1768 73.7674 12.4885C73.7674 14.4775 74.6526 15.1385 76.5198 14.5459C78.6476 13.87 77.9918 11.2316 75.6285 10.96C74.1667 10.7914 73.7674 10.3919 73.7674 9.09771C73.7674 7.80016 73.4148 7.44937 72.1107 7.44937C70.5893 7.44937 70.4378 7.15884 70.2496 3.89399C70.0588 0.577665 69.92 0.324386 68.1841 0.124608C66.5815 -0.0602721 66.323 0.151696 66.323 1.64834ZM82.1965 1.66256C80.5906 3.26892 80.5351 3.64274 80.5351 12.7987C80.5351 21.8375 80.6102 22.3596 82.1681 24.1725L83.8018 26.0728H93.6549C106.809 26.0728 106.505 26.3484 106.815 14.1396C107.061 4.42696 106.515 2.00049 103.806 0.765253C102.824 0.316936 98.3408 0 92.9923 0C84.1957 0 83.7957 0.0616265 82.1965 1.66256ZM21.2112 4.23937C22.2263 4.98295 22.3529 6.18771 22.1864 13.5511L21.9949 22.0095L13.5421 22.2011C6.1836 22.3677 4.97964 22.2411 4.23655 21.2253C2.90197 19.3982 3.07184 5.82608 4.44703 4.44998C5.82221 3.07388 19.3853 2.9039 21.2112 4.23937ZM101.365 3.81814C102.883 4.22515 102.904 4.36939 102.718 13.1204L102.53 22.0095L93.9357 22.1984C85.7685 22.3786 85.3029 22.3163 84.572 20.9497C83.3897 18.7385 83.9643 4.87392 85.2724 4.04771C86.3925 3.3407 98.9174 3.16192 101.365 3.81814ZM8.25654 8.26203C7.79769 8.72118 7.44442 10.9208 7.44442 13.3174C7.44442 18.3072 8.14013 18.962 13.4426 18.962C17.8409 18.962 18.9494 17.8527 18.9494 13.4515C18.9494 8.14554 18.295 7.44937 13.3086 7.44937C10.9135 7.44937 8.71539 7.80287 8.25654 8.26203ZM58.8786 9.14241C58.8786 10.5083 58.5429 10.8354 57.142 10.8354C55.6464 10.8354 55.4345 11.0941 55.6193 12.6978C55.9177 15.2969 58.4516 15.3301 58.7507 12.7391C58.9131 11.3312 59.374 10.87 60.781 10.7074C62.0722 10.5578 62.6637 10.0539 62.8174 8.9731C63.0008 7.67691 62.7233 7.44937 60.9563 7.44937C59.1913 7.44937 58.8786 7.704 58.8786 9.14241ZM88.7916 8.26203C88.3328 8.72118 87.9795 10.9208 87.9795 13.3174C87.9795 18.3072 88.6752 18.962 93.9777 18.962C98.376 18.962 99.4845 17.8527 99.4845 13.4515C99.4845 8.14554 98.8301 7.44937 93.8437 7.44937C91.4486 7.44937 89.2505 7.80287 88.7916 8.26203ZM55.6193 20.1472C55.7729 21.4867 56.2135 22.0095 57.1867 22.0095C58.1599 22.0095 58.6004 21.4867 58.7541 20.1472C58.9402 18.5327 58.7311 18.2848 57.1867 18.2848C55.6423 18.2848 55.4332 18.5327 55.6193 20.1472ZM63.0637 20.1472C63.2173 21.4867 63.6579 22.0095 64.6311 22.0095C65.6043 22.0095 66.0449 21.4867 66.1985 20.1472C66.3846 18.5327 66.1755 18.2848 64.6311 18.2848C63.0867 18.2848 62.8776 18.5327 63.0637 20.1472ZM29.8413 22.6102C29.3858 23.1594 29.109 24.7719 29.2261 26.1947C29.4129 28.464 29.6721 28.8087 31.3376 28.9997C33.2278 29.2164 33.2346 29.2029 33.0295 25.6197C32.8109 21.8145 31.5156 20.5914 29.8413 22.6102ZM37.3913 22.1192C36.8756 22.3278 36.5453 23.7608 36.5453 25.7904C36.5453 29.039 36.5947 29.1203 38.5756 29.1203C40.5552 29.1203 40.6059 29.037 40.6059 25.8066C40.6059 23.41 40.3095 22.3793 39.5353 22.082C38.9465 21.8558 38.4139 21.6953 38.3509 21.7244C38.2887 21.7535 37.8569 21.9316 37.3913 22.1192ZM44.8039 22.2486C44.182 22.644 43.9843 24.2673 44.1271 27.8254C44.3248 32.7637 44.3586 32.8483 46.2231 33.0623C48.0571 33.2729 48.1113 33.3928 47.915 36.787C47.7275 40.0227 47.5807 40.2943 46.0201 40.2943C44.456 40.2943 44.3126 40.0255 44.1238 36.7389C43.9356 33.4741 43.784 33.1835 42.2626 33.1835H40.6059V42.326V51.4684H42.2532C43.5465 51.4684 43.9458 51.8679 44.1143 53.3307C44.2841 54.8084 44.6773 55.193 46.0201 55.193C47.5813 55.193 47.7275 54.9215 47.915 51.6803C48.0889 48.6748 48.3292 48.1371 49.5792 47.9556C50.482 47.8249 51.1899 47.1064 51.4308 46.075C51.6758 45.0308 52.4453 44.2608 53.4888 44.0149C55.0589 43.6465 55.1679 43.3194 55.3533 38.4381L55.5503 33.2526L59.0755 33.0488C62.3301 32.8605 62.6008 32.7149 62.6008 31.1519C62.6008 29.8083 62.2164 29.4148 60.7397 29.2449C59.2779 29.0762 58.8786 28.6767 58.8786 27.3825C58.8786 25.0929 55.6958 24.9804 55.3729 27.2579C55.218 28.3489 54.6278 28.8426 53.2953 28.9956C51.6927 29.1805 51.4342 28.9686 51.4342 27.4719C51.4342 26.0701 51.1073 25.7342 49.7423 25.7342C48.409 25.7342 48.0503 25.3908 48.0503 24.1136C48.0503 23.2224 47.5685 22.3081 46.9797 22.082C45.6871 21.5856 45.8712 21.5713 44.8039 22.2486ZM51.6974 22.6393C51.0234 24.3967 51.9675 25.8486 53.631 25.6123C54.749 25.4531 55.1564 24.9439 55.1564 23.7025C55.1564 22.4612 54.749 21.9519 53.631 21.7928C52.7153 21.6628 51.9417 22.0014 51.6974 22.6393ZM59.1419 22.6393C58.4678 24.3967 59.4119 25.8486 61.0754 25.6123C62.1934 25.4531 62.6008 24.9439 62.6008 23.7025C62.6008 22.4612 62.1934 21.9519 61.0754 21.7928C60.1597 21.6628 59.3862 22.0014 59.1419 22.6393ZM66.6404 22.6867C66.4658 23.2454 66.1802 24.1597 66.0056 24.7184C65.8317 25.2771 65.0703 25.7342 64.3137 25.7342C62.2584 25.7342 62.3944 28.9489 64.4619 29.2422C65.7884 29.4311 66.011 29.9167 66.189 33.0142L66.3941 36.5696H70.0804C73.5624 36.5696 73.7674 36.4755 73.7674 34.8766C73.7674 33.5222 73.429 33.1835 72.0755 33.1835C70.4256 33.1835 70.3836 33.0616 70.3836 28.2399C70.3836 23.3511 69.738 21.6709 67.8586 21.6709C67.3625 21.6709 66.8143 22.128 66.6404 22.6867ZM3.86636 29.5408C3.60107 29.8063 3.38383 31.5162 3.38383 33.3413C3.38383 36.5615 3.43865 36.6536 5.24493 36.445C6.55989 36.294 7.16762 35.7962 7.31651 34.7486C7.44848 33.8255 8.08599 33.1876 9.00843 33.0555C10.0811 32.9032 10.4899 32.3777 10.4899 31.1519C10.4899 29.6241 10.1901 29.4392 7.41938 29.2584C5.73017 29.148 4.13165 29.2753 3.86636 29.5408ZM15.0438 29.9133C14.5863 30.3711 14.2121 31.2731 14.2121 31.9172C14.2121 32.6174 13.5982 33.1768 12.6894 33.3054C11.7107 33.445 11.0895 34.0666 10.9501 35.0459C10.7768 36.2696 11.0597 36.5696 12.3882 36.5696C13.6937 36.5696 14.1309 37.0085 14.4584 38.6493C14.7948 40.3302 15.1677 40.6871 16.4041 40.5117C17.847 40.3065 17.9343 39.9869 17.9343 34.8861C17.9343 30.5837 17.7238 29.4365 16.9049 29.2794C16.3391 29.1697 15.5013 29.4555 15.0438 29.9133ZM22.3685 30.0941C20.7611 32.0316 22.0192 33.1835 25.7408 33.1835C29.105 33.1835 29.1855 33.1375 28.9764 31.3212C28.7869 29.6681 28.4512 29.4358 25.9973 29.2557C24.1362 29.1196 22.9491 29.3939 22.3685 30.0941ZM74.0307 30.0887C73.3566 31.846 74.3007 33.298 75.9642 33.0616C77.0822 32.9025 77.4896 32.3932 77.4896 31.1519C77.4896 29.9106 77.0822 29.4013 75.9642 29.2422C75.0486 29.1121 74.275 29.4507 74.0307 30.0887ZM81.5482 30.086C81.3634 30.6724 81.0691 31.609 80.8945 32.1677C80.7205 32.7264 79.9646 33.1835 79.2154 33.1835C78.3363 33.1835 77.7069 33.7693 77.4389 34.838C77.1898 35.8301 76.4508 36.5757 75.5927 36.7003C74.7122 36.8283 74.0097 37.5597 73.7674 38.6013C73.4196 40.0999 72.9743 40.3173 69.897 40.4975C66.5342 40.6939 66.4123 40.6377 66.2019 38.8044C65.8791 35.9899 63.2674 35.7732 62.7192 38.5153C62.433 39.9482 61.8679 40.595 60.7668 40.7514C59.7794 40.8916 59.1405 41.5065 59.0072 42.4465C58.8407 43.6174 59.1831 43.9662 60.672 44.1395C62.0262 44.2966 62.657 44.8283 62.9432 46.0506C63.1943 47.1274 63.8088 47.7437 64.6311 47.7437C65.4527 47.7437 66.0679 47.1267 66.3203 46.0506C66.6932 44.4578 67.0363 44.3373 72.1033 44.019C77.0058 43.7109 77.5086 43.547 77.7001 42.198C77.8321 41.2749 78.4696 40.637 79.392 40.5049C80.439 40.3559 80.9364 39.7478 81.0873 38.432C81.2552 36.9739 81.6565 36.5696 82.9356 36.5696C84.8853 36.5696 85.8132 33.9793 84.8481 31.2325C84.1409 29.2212 82.0504 28.4945 81.5482 30.086ZM88.9087 30.1158C88.0743 32.293 89.1733 33.1835 92.6959 33.1835C95.8767 33.1835 96.1007 33.2953 96.1007 34.8766C96.1007 36.231 96.4391 36.5696 97.7926 36.5696C99.1461 36.5696 99.4845 36.231 99.4845 34.8766C99.4845 33.447 99.8006 33.1835 101.515 33.1835C103.214 33.1835 103.545 33.4517 103.545 34.8319C103.545 36.126 103.146 36.5256 101.684 36.6942C99.9305 36.896 99.8229 37.1039 99.8229 40.2943C99.8229 43.4549 99.9359 43.6804 101.515 43.6804C102.754 43.6804 103.264 43.2727 103.423 42.1566C103.58 41.046 104.093 40.6329 105.311 40.6329C106.971 40.6329 106.982 40.5896 106.787 35.0459L106.591 29.4589L97.9483 29.2692C90.6967 29.1101 89.2424 29.2462 88.9087 30.1158ZM29.3581 34.1669C28.7991 35.6249 29.645 36.5696 31.5095 36.5696C32.8204 36.5696 33.1615 36.2202 33.1615 34.8766C33.1615 33.5167 32.8245 33.1835 31.4486 33.1835C30.5059 33.1835 29.5652 33.6258 29.3581 34.1669ZM0 38.5539C0 40.3343 0.249726 40.6329 1.73658 40.6329C3.23223 40.6329 3.44406 40.3742 3.2593 38.7706C3.10635 37.4371 2.61299 36.8466 1.52272 36.6915C0.227393 36.508 0 36.7857 0 38.5539ZM22.1011 37.5516C21.2653 39.7329 22.3563 40.6329 25.8342 40.6329C29.0969 40.6329 29.1848 40.5808 28.9764 38.7706C28.7815 37.0735 28.4851 36.8899 25.6332 36.7051C23.2983 36.554 22.4016 36.7687 22.1011 37.5516ZM92.3034 37.538C91.6293 39.2954 92.5734 40.7474 94.2369 40.511C95.3549 40.3519 95.7623 39.8426 95.7623 38.6013C95.7623 37.3599 95.3549 36.8507 94.2369 36.6915C93.3212 36.5615 92.5477 36.9001 92.3034 37.538ZM7.44442 42.326C7.44442 44.0285 7.56827 44.0826 10.9974 43.8849C14.0314 43.7102 14.5505 43.4826 14.5505 42.326C14.5505 41.1693 14.0314 40.9417 10.9974 40.767C7.56827 40.5693 7.44442 40.6234 7.44442 42.326ZM33.1615 42.326C33.1615 43.6804 33.4999 44.019 34.8534 44.019C36.207 44.019 36.5453 43.6804 36.5453 42.326C36.5453 40.9715 36.207 40.6329 34.8534 40.6329C33.4999 40.6329 33.1615 40.9715 33.1615 42.326ZM81.0779 44.1883L80.8735 47.7437L77.3204 47.9482C74.0578 48.1365 73.7674 48.2882 73.7674 49.8105C73.7674 51.1277 74.1153 51.4684 75.4594 51.4684C76.888 51.4684 77.1513 51.7846 77.1513 53.5C77.1513 55.4836 77.0714 55.5316 73.8074 55.5316C71.9679 55.5316 70.2922 55.8086 70.0831 56.1479C69.3542 57.3276 70.5393 58.9177 72.1479 58.9177C73.6571 58.9177 73.7674 59.1676 73.7674 62.5977C73.7674 66.0942 73.8588 66.2879 75.6015 66.4917C76.9137 66.6447 77.5485 67.1879 77.8321 68.3987C78.3999 70.8306 80.8031 70.7053 81.0873 68.2294C81.2531 66.7931 81.6619 66.3671 82.876 66.3671C84.5442 66.3671 85.2724 65.2355 85.2724 62.6424C85.2724 60.0331 84.5415 58.9177 82.8314 58.9177C81.3195 58.9177 81.2119 58.6699 81.2119 55.193V51.4684H84.9341C88.4532 51.4684 88.6563 51.3763 88.6563 49.7753C88.6563 48.4209 88.3179 48.0823 86.9644 48.0823C85.4477 48.0823 85.2724 47.808 85.2724 45.429C85.2724 41.7537 84.7101 40.6329 82.8665 40.6329C81.4332 40.6329 81.2633 40.9702 81.0779 44.1883ZM88.6563 42.326C88.6563 43.6804 88.9947 44.019 90.3482 44.019C91.7017 44.019 92.0401 43.6804 92.0401 42.326C92.0401 40.9715 91.7017 40.6329 90.3482 40.6329C88.9947 40.6329 88.6563 40.9715 88.6563 42.326ZM0 46.0506C0 47.8676 0.221302 48.1453 1.52272 47.9604C2.63803 47.8012 3.04544 47.2906 3.04544 46.0506C3.04544 44.8107 2.63803 44.3 1.52272 44.1409C0.221302 43.956 0 44.2337 0 46.0506ZM18.5319 44.9976C17.6649 47.2574 18.7823 48.1669 22.1573 47.9502C25.087 47.7626 25.3787 47.5906 25.3787 46.0506C25.3787 44.5106 25.087 44.3386 22.1573 44.151C19.7325 43.9953 18.8357 44.2045 18.5319 44.9976ZM29.5807 44.4416C29.3168 44.7057 29.1009 46.3947 29.1009 48.1954V51.4684H25.757C22.1566 51.4684 21.3256 52.0677 21.9969 54.1833C22.3468 55.2858 23.0236 55.5316 25.7157 55.5316C28.6136 55.5316 29.0326 55.7138 29.2227 57.0554C29.4115 58.3827 29.8968 58.6055 32.9923 58.7836C36.3802 58.9787 36.5453 58.9103 36.5453 57.3053C36.5453 55.9718 36.9324 55.577 38.4064 55.407C39.8831 55.2371 40.2675 54.8436 40.2675 53.5C40.2675 51.937 39.9968 51.7914 36.749 51.6031L33.2299 51.4L33.0268 47.8784C32.8563 44.9312 32.5984 44.3251 31.4418 44.1599C30.6818 44.0508 29.8447 44.1781 29.5807 44.4416ZM55.4948 46.0032C55.4948 47.8615 55.2796 48.0823 53.4645 48.0823C51.7502 48.0823 51.4342 48.3457 51.4342 49.7753C51.4342 51.2049 51.7502 51.4684 53.4645 51.4684C55.1632 51.4684 55.4948 51.1995 55.4948 49.8227C55.4948 48.6308 55.915 48.1168 57.0175 47.9604C58.1328 47.8012 58.5402 47.2906 58.5402 46.0506C58.5402 44.8107 58.1328 44.3 57.0175 44.1409C55.7222 43.9574 55.4948 44.235 55.4948 46.0032ZM10.6942 51.6377C10.5183 54.6973 10.2848 55.2222 9.01587 55.403C7.841 55.5702 7.49788 55.2276 7.32395 53.7099C7.15003 52.1896 6.76562 51.807 5.41412 51.807C3.85012 51.807 3.70664 52.0758 3.51783 55.3623C3.32833 58.6543 3.18689 58.9177 1.61138 58.9177C0.15498 58.9177 -0.0588786 59.1852 0.124525 60.7801C0.336352 62.6268 0.380342 62.6424 5.41412 62.6424C10.4202 62.6424 10.4926 62.6173 10.7003 60.8214C10.8628 59.4134 11.3236 58.9523 12.7306 58.7897C14.4171 58.5947 14.5653 58.3191 14.7548 55.0237C14.943 51.7589 15.0946 51.4684 16.6159 51.4684C17.9323 51.4684 18.2727 51.1203 18.2727 49.7753C18.2727 48.1764 18.0676 48.0823 14.5856 48.0823H10.8993L10.6942 51.6377ZM59.0187 53.2826C59.2116 58.4274 59.265 58.5791 60.9089 58.5791C62.1338 58.5791 62.659 58.1701 62.8113 57.0967C62.9432 56.1736 63.5808 55.5357 64.5032 55.4037C66.6012 55.105 66.6012 51.895 64.5032 51.5964C63.5808 51.4643 62.9432 50.8264 62.8113 49.9033C62.6617 48.8496 62.0547 48.3579 60.7106 48.2035L58.8197 47.9868L59.0187 53.2826ZM66.323 49.7753C66.323 51.3207 66.5707 51.53 68.1841 51.3438C69.5228 51.19 70.0452 50.7492 70.0452 49.7753C70.0452 48.8015 69.5228 48.3606 68.1841 48.2069C66.5707 48.0207 66.323 48.2299 66.323 49.7753ZM99.7119 49.1435C99.2341 50.3889 99.9758 51.2422 101.823 51.5754C102.57 51.7101 103.321 52.5505 103.546 53.5034C103.803 54.5924 104.415 55.193 105.267 55.193C106.386 55.193 106.622 54.6445 106.795 51.6377L107 48.0823H103.559C101.06 48.0823 100.008 48.3728 99.7119 49.1435ZM96.2252 53.3307C96.3782 54.6641 96.8715 55.2547 97.9618 55.4097C99.2571 55.5933 99.4845 55.3156 99.4845 53.5474C99.4845 51.767 99.2348 51.4684 97.7479 51.4684C96.2523 51.4684 96.0405 51.7271 96.2252 53.3307ZM40.4841 57.0276C40.3474 57.973 39.6442 58.6699 38.5756 58.9204C36.0486 59.513 36.1799 62.5611 38.7448 62.8564C40.2066 63.025 40.6059 63.4246 40.6059 64.7188C40.6059 66.0258 40.9565 66.3671 42.2978 66.3671C43.9613 66.3671 43.9898 66.277 43.9898 60.9494C43.9898 55.663 43.9498 55.5316 42.3452 55.5316C41.1649 55.5316 40.6391 55.9542 40.4841 57.0276ZM51.4342 57.2694C51.4342 58.766 51.6927 58.978 53.2953 58.7931C54.6278 58.6401 55.218 58.1464 55.3729 57.0554C55.5564 55.7592 55.2789 55.5316 53.5118 55.5316C51.7326 55.5316 51.4342 55.7815 51.4342 57.2694ZM84.8529 56.515C84.1896 58.2446 85.267 58.9177 88.6962 58.9177C91.812 58.9177 92.0401 58.8019 92.0401 57.2247C92.0401 55.6434 91.8161 55.5316 88.6353 55.5316C86.2829 55.5316 85.1134 55.8357 84.8529 56.515ZM18.5319 59.8963C17.6649 62.1562 18.7823 63.0657 22.1573 62.849C25.087 62.6614 25.3787 62.4894 25.3787 60.9494C25.3787 59.4094 25.087 59.2374 22.1573 59.0498C19.7325 58.894 18.8357 59.1033 18.5319 59.8963ZM92.3034 59.8861C91.6293 61.6435 92.5734 63.0955 94.2369 62.8591C95.3549 62.7 95.7623 62.1907 95.7623 60.9494C95.7623 59.708 95.3549 59.1988 94.2369 59.0396C93.3212 58.9096 92.5477 59.2482 92.3034 59.8861ZM99.9359 59.3694C99.6876 59.6173 99.4845 61.2934 99.4845 63.0941C99.4845 66.1565 99.3729 66.3671 97.7479 66.3671C96.2523 66.3671 96.0405 66.6258 96.2252 68.2294C96.3761 69.5453 96.8736 70.1534 97.9205 70.3024C98.8429 70.4344 99.4805 71.0724 99.6124 71.9954C99.7938 73.274 100.312 73.5063 103.376 73.6824L106.929 73.8876V66.4023V58.9177H103.658C101.859 58.9177 100.184 59.1209 99.9359 59.3694ZM10.9501 64.5048C11.1389 65.8321 11.6241 66.0549 14.7196 66.233C18.1312 66.4294 18.2727 66.3691 18.2727 64.7093C18.2727 63.063 18.0933 62.981 14.5031 62.981C10.9819 62.981 10.7484 63.0812 10.9501 64.5048ZM25.5953 64.5048C25.4112 65.7976 24.865 66.0799 21.9949 66.3671C19.1247 66.6542 18.5786 66.9366 18.3945 68.2294C18.2131 69.508 17.7597 69.7532 15.5737 69.7532C11.3155 69.7532 10.8282 70.1798 10.8282 73.9099C10.8282 76.2626 11.1301 77.361 11.8522 77.638C13.18 78.1479 14.8888 76.7129 14.8888 75.0883C14.8888 74.0142 15.4133 73.8165 18.2598 73.8165C21.2721 73.8165 21.6748 73.6404 22.047 72.158C22.4023 70.7399 22.916 70.4697 25.5851 70.2956C28.2841 70.1195 28.7612 69.8615 29.1009 68.3987C29.4501 66.896 29.8907 66.6827 33.0201 66.5012C36.2536 66.3136 36.5453 66.1592 36.5453 64.6388C36.5453 63.0196 36.4215 62.981 31.1786 62.981C26.1279 62.981 25.7983 63.0711 25.5953 64.5048ZM48.0503 64.6741C48.0503 66.3386 48.1404 66.3671 53.4645 66.3671C58.7886 66.3671 58.8786 66.3386 58.8786 64.6741C58.8786 63.0095 58.7886 62.981 53.4645 62.981C48.1404 62.981 48.0503 63.0095 48.0503 64.6741ZM62.9392 69.7884V76.5958L60.9366 77.2946C58.9788 77.9773 58.9294 78.1093 58.7371 83.1851L58.5402 88.3766L55.1564 88.7152L51.7726 89.0538V96.1646V103.275H53.4645C54.8072 103.275 55.2004 102.891 55.3702 101.413C55.5388 99.9502 55.938 99.5506 57.2313 99.5506C58.6106 99.5506 58.8786 99.8818 58.8786 101.582C58.8786 103.298 58.6153 103.614 57.1867 103.614C55.8331 103.614 55.4948 103.953 55.4948 105.307V107H68.3533H81.2119V105.307C81.2119 103.953 80.8735 103.614 79.5199 103.614C78.0913 103.614 77.828 103.298 77.828 101.582C77.828 99.8669 78.0913 99.5506 79.5199 99.5506C80.8735 99.5506 81.2119 99.212 81.2119 97.8576C81.2119 96.5032 80.8735 96.1646 79.5199 96.1646C78.0859 96.1646 77.828 95.8503 77.828 94.1045V92.0444L83.073 92.2421L88.3179 92.4399L88.5223 95.9953L88.7273 99.5506H92.461C95.9268 99.5506 96.1792 99.443 95.9789 98.0547C95.8422 97.1093 95.139 96.4124 94.0704 96.1618C92.8326 95.8713 92.3785 95.3187 92.3785 94.1024C92.3785 92.7832 92.7717 92.3945 94.2802 92.2218C95.786 92.0491 96.1386 91.7024 95.9721 90.5565C95.8422 89.6606 95.1174 88.9583 94.0704 88.7138C92.4116 88.3258 92.3744 88.1775 92.1863 81.0674L91.9941 73.8165H88.6333C86.3153 73.8165 85.2724 73.5415 85.2724 72.93C85.2724 69.8622 81.5056 69.036 81.0819 72.0117C80.908 73.2361 80.3158 73.5334 77.4896 73.8165L74.1058 74.1551L73.7674 77.5411L73.429 80.9272L70.0452 81.2658C67.1751 81.553 66.6289 81.8354 66.4448 83.1282C66.1173 85.4402 62.9392 85.2865 62.9392 82.9589C62.9392 81.6044 63.2776 81.2658 64.6311 81.2658C66.2946 81.2658 66.323 81.1758 66.323 75.8481C66.323 70.9999 66.4563 70.4304 67.594 70.4304C69.2175 70.4304 70.6516 68.7204 70.142 67.3917C69.9261 66.8283 68.9786 66.3671 68.0359 66.3671C66.66 66.3671 66.323 66.0339 66.323 64.6741C66.323 63.3196 65.9846 62.981 64.6311 62.981H62.9392V69.7884ZM0.124525 68.2294C0.278151 69.569 0.718725 70.0918 1.69191 70.0918C2.6651 70.0918 3.10568 69.569 3.2593 68.2294C3.44541 66.615 3.23629 66.3671 1.69191 66.3671C0.147535 66.3671 -0.0615856 66.615 0.124525 68.2294ZM7.56894 68.2294C7.72257 69.569 8.16315 70.0918 9.13633 70.0918C10.1095 70.0918 10.5501 69.569 10.7037 68.2294C10.8898 66.615 10.6807 66.3671 9.13633 66.3671C7.59195 66.3671 7.38283 66.615 7.56894 68.2294ZM36.8086 67.3355C36.1345 69.0929 37.0786 70.5448 38.7421 70.3085C39.8601 70.1493 40.2675 69.6401 40.2675 68.3987C40.2675 67.1574 39.8601 66.6481 38.7421 66.489C37.8265 66.359 37.0529 66.6976 36.8086 67.3355ZM84.8589 67.3355C84.1849 69.0929 85.129 70.5448 86.7925 70.3085C87.9105 70.1493 88.3179 69.6401 88.3179 68.3987C88.3179 67.1574 87.9105 66.6481 86.7925 66.489C85.8768 66.359 85.1033 66.6976 84.8589 67.3355ZM4.22978 70.2015C3.76485 70.3898 3.38383 71.2796 3.38383 72.1796C3.38383 73.4853 3.03259 73.8165 1.64725 73.8165C0.151595 73.8165 -0.0602321 74.0752 0.124525 75.6788C0.422978 78.278 2.95679 78.3111 3.25592 75.7201C3.41767 74.3142 3.87989 73.8503 5.28012 73.6885C7.29079 73.4548 8.18006 71.3135 6.66479 70.3525C5.65979 69.7152 5.46488 69.7031 4.22978 70.2015ZM29.913 70.5658C29.398 71.0812 29.1009 73.6756 29.1009 77.6529C29.1009 82.9446 29.2863 84.0228 30.2853 84.5368C32.0117 85.4253 33.1615 84.7718 33.1615 82.9027C33.1615 81.6085 33.5155 81.2658 34.8534 81.2658C37.1795 81.2658 37.3331 78.0856 35.0226 77.7579C33.9323 77.6028 33.439 77.0122 33.286 75.6788C33.1013 74.0752 33.3131 73.8165 34.8088 73.8165C36.1894 73.8165 36.5453 73.4839 36.5453 72.1959C36.5453 71.3047 36.0635 70.3904 35.4747 70.1642C33.7104 69.487 30.78 69.6983 29.913 70.5658ZM44.7694 70.3525C43.2609 71.3087 44.1292 73.4779 46.0201 73.4779C47.1198 73.4779 47.7776 73.041 47.9387 72.2047C48.1492 71.1089 47.0954 69.7742 46.0201 69.7742C45.8339 69.7742 45.2709 70.0342 44.7694 70.3525ZM55.9692 70.1812C55.7086 70.4426 55.4948 71.367 55.4948 72.2365C55.4948 73.4812 55.8629 73.8165 57.2313 73.8165C58.7256 73.8165 58.9388 73.5571 58.7541 71.9602C58.5497 70.1852 56.9721 69.1775 55.9692 70.1812ZM70.4147 70.7311C69.1796 72.2209 70.0506 73.8165 72.0992 73.8165C73.6165 73.8165 73.8283 73.5625 73.6429 71.9602C73.3986 69.8378 71.6938 69.189 70.4147 70.7311ZM21.9908 74.4998C21.7594 74.8756 21.7675 75.8075 22.0091 76.5707C22.6845 78.6999 25.3212 78.0436 25.5926 75.6788C25.776 74.0853 25.5621 73.8165 24.1098 73.8165C23.1765 73.8165 22.2229 74.1239 21.9908 74.4998ZM40.7304 75.6788C40.8841 77.0183 41.3246 77.5411 42.2978 77.5411C43.271 77.5411 43.7116 77.0183 43.8652 75.6788C44.0513 74.0643 43.8422 73.8165 42.2978 73.8165C40.7535 73.8165 40.5443 74.0643 40.7304 75.6788ZM51.6974 74.7849C51.0234 76.5422 51.9675 77.9942 53.631 77.7579C54.749 77.5987 55.1564 77.0894 55.1564 75.8481C55.1564 74.6068 54.749 74.0975 53.631 73.9384C52.7153 73.8083 51.9417 74.1469 51.6974 74.7849ZM44.7694 77.8019C43.2609 78.7581 44.1292 80.9272 46.0201 80.9272C47.1198 80.9272 47.7776 80.4904 47.9387 79.6541C48.1492 78.5583 47.0954 77.2235 46.0201 77.2235C45.8339 77.2235 45.2709 77.4836 44.7694 77.8019ZM88.5155 83.1282L88.3179 88.3766L83.073 88.5743L77.828 88.7721V83.3259V77.8798H83.2706H88.7131L88.5155 83.1282ZM103.423 79.4035C103.234 80.7308 102.749 80.9536 99.6537 81.1317C96.3991 81.3193 96.1007 81.4744 96.1007 82.9812C96.1007 84.1609 96.5683 84.7433 97.754 85.0413C98.7604 85.2939 99.4886 86.028 99.6151 86.9165C99.7606 87.9405 100.379 88.4409 101.684 88.5906C103.146 88.7592 103.545 89.1588 103.545 90.4529C103.545 91.7599 103.896 92.1013 105.237 92.1013H106.929V84.9905C106.929 77.9116 106.922 77.8798 105.284 77.8798C104.093 77.8798 103.58 78.3003 103.423 79.4035ZM2.92024 81.2706C2.10745 81.5983 1.11734 82.4733 0.720756 83.2149C-0.25108 85.0318 -0.215889 101.722 0.764744 103.875C1.99916 106.586 4.42402 107.132 14.1302 106.886C26.3309 106.576 26.0555 106.88 26.0555 93.7171V83.8575L24.1565 82.2227C22.3502 80.6685 21.823 80.5906 13.3282 80.6313C8.41693 80.655 3.73372 80.9428 2.92024 81.2706ZM36.9967 81.7175C35.7901 82.925 36.6394 84.7047 38.6108 85.0989C41.3429 85.6461 41.2265 88.2655 38.4552 88.5858C36.9108 88.7646 36.611 88.5147 36.4249 86.8928C36.1386 84.3973 33.7415 84.2246 33.1676 86.6592C32.9213 87.7014 32.1484 88.4748 31.1068 88.7213C30.0538 88.9698 29.4393 89.5915 29.4393 90.4082C29.4393 91.225 30.0538 91.8466 31.1068 92.0952C32.1497 92.3417 32.9199 93.1137 33.1642 94.1573C33.5094 95.6309 33.9675 95.8497 37.0807 96.0305C40.3142 96.2181 40.6059 96.3725 40.6059 97.8928C40.6059 99.21 40.9538 99.5506 42.2978 99.5506C43.7265 99.5506 43.9898 99.8669 43.9898 101.582C43.9898 103.298 43.7265 103.614 42.2978 103.614C40.9443 103.614 40.6059 103.953 40.6059 105.307C40.6059 106.972 40.6959 107 46.0201 107C51.3442 107 51.4342 106.972 51.4342 105.307C51.4342 103.96 51.0938 103.614 49.7693 103.614C48.1519 103.614 48.0998 103.457 47.9082 98.0269C47.714 92.4907 47.695 92.4379 45.8509 92.2259C44.389 92.0573 43.9898 91.6577 43.9898 90.3635C43.9898 88.8168 44.2199 88.7152 47.712 88.7152C51.2311 88.7152 51.4342 88.6231 51.4342 87.0222C51.4342 85.8174 51.8003 85.3291 52.7051 85.3291C54.3287 85.3291 55.7628 83.6191 55.2532 82.2905C54.9757 81.5665 53.8759 81.2658 51.5025 81.2658C48.5356 81.2658 48.1194 81.4433 47.9285 82.7896C47.7735 83.8806 47.1834 84.3742 45.8509 84.5273C44.2483 84.7122 43.9898 84.5002 43.9898 83.0036C43.9898 81.3776 43.7793 81.2658 40.7189 81.2658C38.9194 81.2658 37.2444 81.469 36.9967 81.7175ZM81.2119 82.8864C81.2119 84.8185 83.1082 85.7531 84.4021 84.4582C85.6961 83.1634 84.7622 81.2658 82.8314 81.2658C81.5746 81.2658 81.2119 81.6288 81.2119 82.8864ZM20.6177 84.6431L22.3739 85.3108L22.1844 93.9548L21.9949 102.598L13.1117 102.786C2.6448 103.008 3.40142 103.762 3.40345 93.1171C3.40481 86.1831 3.64709 85.1415 5.41412 84.4684C7.15206 83.8061 18.7694 83.9395 20.6177 84.6431ZM73.7674 88.7152C73.7674 91.8758 73.6544 92.1013 72.0755 92.1013C70.4966 92.1013 70.3836 91.8758 70.3836 88.7152C70.3836 85.5546 70.4966 85.3291 72.0755 85.3291C73.6544 85.3291 73.7674 85.5546 73.7674 88.7152ZM8.25654 88.8506C7.79769 89.3098 7.44442 91.5094 7.44442 93.906C7.44442 98.8958 8.14013 99.5506 13.4426 99.5506C17.8409 99.5506 18.9494 98.4414 18.9494 94.0401C18.9494 88.7342 18.295 88.038 13.3086 88.038C10.9135 88.038 8.71539 88.3915 8.25654 88.8506ZM66.323 90.4082C66.323 91.7627 65.9846 92.1013 64.6311 92.1013C63.2776 92.1013 62.9392 91.7627 62.9392 90.4082C62.9392 89.0538 63.2776 88.7152 64.6311 88.7152C65.9846 88.7152 66.323 89.0538 66.323 90.4082ZM96.5751 92.5293C96.3146 92.7907 96.1007 93.7151 96.1007 94.5846C96.1007 95.8293 96.4688 96.1646 97.8373 96.1646C99.3316 96.1646 99.5447 95.9052 99.36 94.3083C99.1556 92.5333 97.5781 91.5256 96.5751 92.5293ZM29.3912 97.0619C29.1821 97.607 29.107 99.2283 29.2248 100.665L29.4393 103.275H32.8231C35.9816 103.275 36.207 103.162 36.207 101.582C36.207 100.357 35.7982 99.831 34.7255 99.6786C33.8031 99.5466 33.1656 98.9086 33.0336 97.9856C32.7852 96.2363 29.98 95.5253 29.3912 97.0619ZM73.7674 97.8576C73.7674 99.5222 73.6774 99.5506 68.3533 99.5506C63.0292 99.5506 62.9392 99.5222 62.9392 97.8576C62.9392 96.193 63.0292 96.1646 68.3533 96.1646C73.6774 96.1646 73.7674 96.193 73.7674 97.8576ZM103.545 97.8576C103.545 99.212 103.883 99.5506 105.237 99.5506C106.591 99.5506 106.929 99.212 106.929 97.8576C106.929 96.5032 106.591 96.1646 105.237 96.1646C103.883 96.1646 103.545 96.5032 103.545 97.8576ZM81.4711 100.529C80.6041 102.789 81.7215 103.699 85.0965 103.482C88.0262 103.294 88.3179 103.122 88.3179 101.582C88.3179 100.042 88.0262 99.8703 85.0965 99.6827C82.6716 99.5269 81.7749 99.7362 81.4711 100.529ZM99.7749 100.448C99.5657 100.993 99.4906 102.614 99.6084 104.051L99.8229 106.661L103.376 106.866C106.787 107.062 106.929 107.002 106.929 105.342C106.929 103.963 106.597 103.614 105.282 103.614C103.988 103.614 103.589 103.214 103.421 101.752C103.268 100.417 102.774 99.8276 101.681 99.6725C100.804 99.5479 99.9934 99.8771 99.7749 100.448ZM88.6563 105.307C88.6563 106.908 88.8593 107 92.3785 107C95.8977 107 96.1007 106.908 96.1007 105.307C96.1007 103.706 95.8977 103.614 92.3785 103.614C88.8593 103.614 88.6563 103.706 88.6563 105.307Z" fill="#FCFCFC" fill-opacity="0.87451"/>
</svg>
