<svg width="34" height="27" viewBox="0 0 34 27" fill="none" xmlns="http://www.w3.org/2000/svg">
<path d="M24.7774 8.60101C25.8201 7.59782 26.8553 5.25706 22.5105 8.09941C18.4518 10.7867 14.3656 13.4353 10.2525 16.0449C9.62619 16.3174 8.94907 16.4653 8.26184 16.4796C7.57461 16.494 6.89146 16.3746 6.25341 16.1285C3.64653 15.3761 0.603283 14.373 0.603283 14.373C0.603283 14.373 -1.47466 13.1172 2.0824 11.7796C2.0824 11.7796 17.1211 5.84225 22.3367 3.75046C24.3353 2.91447 31.1151 0.239314 31.1151 0.239314C31.1151 0.239314 34.2453 -0.932885 33.9846 1.91129C33.8977 3.08167 33.2025 7.18164 32.5073 11.6124C31.4627 17.8841 30.3331 24.7428 30.3331 24.7428C30.3331 24.7428 30.1593 26.6656 28.682 27C27.1007 26.9743 25.5728 26.4451 24.3372 25.4952C23.9896 25.2444 17.8181 21.4807 15.557 19.6415C15.3269 19.4916 15.1401 19.2882 15.0137 19.0501C14.8874 18.8121 14.8257 18.5471 14.8344 18.28C14.843 18.0128 14.9218 17.7521 15.0633 17.5221C15.2049 17.2921 15.4046 17.1003 15.6438 16.9645C18.7452 14.2347 21.7903 11.4463 24.7774 8.60101Z" fill="#FCFCFC"/>
</svg>
