<svg width="47" height="27" viewBox="0 0 47 27" fill="none" xmlns="http://www.w3.org/2000/svg">
<path d="M39.0016 15.4826C38.2417 14.5376 38.4591 14.1171 39.0016 13.2724C39.0114 13.2628 45.2841 4.72693 45.9304 1.83214L45.9343 1.83021C46.2555 0.775286 45.9343 0 44.3813 0H39.2424C37.9342 0 37.331 0.665357 37.0079 1.40979C37.0079 1.40979 34.3915 7.57736 30.6901 11.5753C29.4955 12.7305 28.9432 13.1008 28.2911 13.1008C27.9699 13.1008 27.4705 12.7305 27.4705 11.6756V1.83021C27.4705 0.565071 27.1043 0 26.0213 0H17.9409C17.1203 0 16.6327 0.590143 16.6327 1.13979C16.6327 2.33936 18.4834 2.61514 18.6753 5.99014V13.3129C18.6753 14.9175 18.3796 15.2126 17.7235 15.2126C15.9766 15.2126 11.7367 9.01993 9.22407 1.93243C8.71684 0.557357 8.22137 0.00192843 6.90336 0.00192843H1.76256C0.295719 0.00192843 0 0.667285 0 1.41171C0 2.727 1.74689 9.26679 8.12345 17.9068C12.3732 23.8044 18.3581 27 23.8024 27C27.0749 27 27.4744 26.2903 27.4744 25.0695C27.4744 19.4342 27.1787 18.9019 28.8179 18.9019C29.5777 18.9019 30.8859 19.2722 33.9411 22.1169C37.4329 25.4899 38.0067 27 39.9612 27H45.1C46.5649 27 47.3071 26.2903 46.8802 24.8901C45.903 21.9452 39.2992 15.8876 39.0016 15.4826Z" fill="#FCFCFC"/>
</svg>
