<?xml version="1.0" encoding="utf-8"?>
<svg viewBox="0 0 64 64" xmlns="http://www.w3.org/2000/svg">
  <linearGradient id="WKlNfRTXgjtELKaUeg7iYa" x1="32.191" x2="32.191" y1="18.735" y2="35.217" gradientUnits="userSpaceOnUse">
    <stop offset="0" stop-color="#8ab4ff"/>
    <stop offset="1" stop-color="#e492ff"/>
  </linearGradient>
  <linearGradient id="WKlNfRTXgjtELKaUeg7iYb" x1="32.16" x2="32.16" y1="19.339" y2="45.654" gradientUnits="userSpaceOnUse">
    <stop offset="0" stop-color="#1A6DFF"/>
    <stop offset="1" stop-color="#C822FF"/>
  </linearGradient>
  <circle cx="55.355" cy="32" r="3.632" style="fill: rgb(255, 255, 255);" transform="matrix(6.470355033874512, 0, 0, 2.0400679111480713, -326.4573669433594, -38.94845199584961)"/>
  <rect x="49.544" y="38.32" width="12.203" height="8.572" style="fill: rgb(255, 255, 255);"/>
  <rect x="2.252" y="39.773" width="11.332" height="7.264" style="fill: rgb(255, 255, 255);"/>
  <rect x="2.179" y="31.492" width="59.786" height="13.584" style="fill: rgb(255, 255, 255);"/>
  <path fill="#1f6bff" d="M36.723,16.314c-0.256-1.163-0.925-1.947-1.565-2.414c0.336-0.372-0.299-0.606-0.299-0.606 s0.188-0.922-0.659-1.412c-0.155,1.358-0.908,1.811-1.368,1.966c0.029-0.127,0.05-0.214,0.05-0.214l-0.455-0.001 c0.55-0.095,0.968-0.444,0.968-0.881c0-0.141-0.05-0.272-0.127-0.391c0.089-0.084,0.146-0.201,0.146-0.333 c0-0.255-0.206-0.461-0.461-0.461c-0.204,0-0.372,0.135-0.432,0.319c-0.118-0.028-0.237-0.055-0.368-0.055 c-0.124,0-0.236,0.027-0.349,0.052c-0.061-0.182-0.229-0.316-0.432-0.316c-0.255,0-0.461,0.206-0.461,0.461 c0,0.127,0.051,0.242,0.134,0.325c-0.08,0.122-0.134,0.255-0.134,0.399c0,0.436,0.416,0.784,0.963,0.88l-0.432-0.001l0.042,0.226 c-0.456-0.145-1.239-0.588-1.397-1.976c-0.847,0.489-0.659,1.412-0.659,1.412s-0.707,0.261-0.228,0.671 c-0.765,0.544-1.21,1.306-1.654,2.321c0.648,0.696,1.101,1.255,1.405,1.841l-0.182,0.399l0.46,0.255 c0.076,0.259,0.126,0.534,0.147,0.838c0,0.003-0.005,0.006-0.005,0.009c0,0.006,0.008,0.012,0.009,0.019c0,0,0,0,0,0c0,0,0,0,0,0 c0.051,0.308,1.316,0.555,2.879,0.555c1.394,0,2.558-0.196,2.829-0.457c0.047-0.008,0.079-0.013,0.079-0.013 s-0.026-0.419,0.058-0.976c0.173-0.075,0.296-0.223,0.318-0.436c0.018-0.173-0.01-0.35-0.075-0.504 C35.693,17.238,36.073,16.666,36.723,16.314z"/>
  <path fill="url(#WKlNfRTXgjtELKaUeg7iYa)" d="M38.95,24.423v-1.411c0.659,0.008,1.529-0.125,1.56,0.669 C40.541,24.467,39.415,24.478,38.95,24.423z M19.303,24.868c-0.459,0-0.831,0.466-0.831,1.04c0,0.574,0.372,1.04,0.831,1.04 c0.459,0,0.83-0.466,0.83-1.04C20.134,25.334,19.762,24.868,19.303,24.868z M37.288,33.936h-3.239c-0.533,0-0.969,0.417-0.998,0.943 c-0.636-0.599-1.489-0.451-2.465-0.346c-0.264-0.045-0.542-0.077-0.855-0.077c-0.349,0-0.661,0.041-0.955,0.099 c-1.048-0.083-1.838-0.222-2.487,0.377c-0.046-0.492-0.45-0.884-0.953-0.905c0,0-2.848-0.121-2.861-0.121 c-0.257,0-0.504,0.099-0.689,0.276c-0.16-0.152-0.369-0.251-0.599-0.272c0,0-3.277-0.303-3.297-0.303 c-0.147-0.104-0.323-0.168-0.515-0.179c0,0-3.098-0.182-3.117-0.182c-0.055,0-0.108,0.004-0.161,0.013 c-0.09-0.052-0.188-0.09-0.291-0.111c-0.263-0.056-0.525-0.084-0.78-0.084c-0.151,0-0.293,0.01-0.425,0.027 c-0.317-0.466-0.79-0.801-1.401-0.801c-0.138,0-0.275,0.018-0.413,0.052c-0.504-0.339-1.171-0.476-1.747-0.476 c-0.215,0-0.422,0.069-0.592,0.195c-0.142-0.126-0.319-0.214-0.518-0.244l-4.91-0.742l0.911-4.555l-3.526-5.425 c6.771-4.977,9.157,0.017,9.474,0.589c5.457-1.462,24.383-6.013,44.36,0.332c0.369-0.581,2.799-6.023,9.74-0.921l-3.526,5.425 l1.03,5.15c-2.763,0.206-4.937,0.439-4.959,0.442c-0.379,0.041-0.701,0.293-0.832,0.65l-0.501,1.372l-0.222-1.003 c-0.102-0.461-0.511-0.784-0.976-0.784c-0.026,0-0.054,0.001-0.08,0.003l-4.139,0.33c-0.515,0.041-0.913,0.466-0.921,0.982 l-0.021,1.432c-0.838-0.912-2.017-1.547-3.566-1.547c-1.16,0-2.211,0.451-3.039,1.306c-0.109,0.113-0.201,0.238-0.299,0.36 c-0.462,0.002-0.931,0.004-1.403,0.005C39.531,34.32,38.289,33.936,37.288,33.936z M17.223,29.325c0,0-0.223-1.486-0.483-2.674 c-0.854,0.26-2.971,0.409-2.711-1.597c0.26-2.006,2.786-1.263,2.786-1.263l0.669-2.266c-0.706-0.223-5.942-1.114-6.017,3.825 C11.398,29.919,16.489,29.799,17.223,29.325z M21.829,25.908c0-1.545-1.131-2.798-2.525-2.798c-1.395,0-2.526,1.253-2.526,2.798 c0,1.545,1.131,2.798,2.526,2.798C20.698,28.706,21.829,27.453,21.829,25.908z M27.121,25.89c0-1.545-1.096-2.779-2.563-2.779 c-1.467,0-2.656,1.253-2.656,2.798c0,1.545,1.189,2.798,2.656,2.798C26.025,28.706,27.121,27.435,27.121,25.89z M29.702,25.611 l1.467-1.857l-1.124-0.929l-1.327,1.783L28.79,22.9l-1.52-0.019l0.179,6.091l1.197-0.019l0.108-1.931l0.968,1.894l1.354-0.724 L29.702,25.611z M33.008,23.011h-1.597l-0.074,5.868l1.56-0.037L33.008,23.011z M47.01,28.879l1.708,0.074l0.037-2.897l1.003,2.711 h1.634v-5.72l-1.486-0.074l-0.111,2.34l-1.151-2.266L47.01,23.16V28.879z M42.367,26.688c0,0-0.074,2.414,2.117,2.488 c2.191,0.074,2.193-2.097,2.21-2.581c0.019-0.52-0.093-3.584-0.093-3.584l-1.523,0.074l0.037,3.436 c0.025,0.867-1.009,1.007-1.003-0.037c0.005-0.891-0.074-3.398-0.074-3.398l-1.634-0.074L42.367,26.688z M36.759,22.974l-3.38,0.056 l-0.186,5.85l3.268,0.037l0.111-1.671l-1.783-0.037l-0.037-0.78l1.671-0.037l0.037-1.114l-1.708-0.037l0.037-0.631l1.931-0.074 L36.759,22.974z M37.242,29.325l2.006-0.037l-0.037-2.674l1.188,3.008l2.043-0.891c0,0-0.891-1.634-1.448-3.045 c0.891-0.334,1.318-1.467,1.151-2.507c-0.541-3.366-4.94-1.69-4.94-1.69L37.242,29.325z M24.559,24.868 c-0.482,0-0.873,0.466-0.873,1.04c0,0.574,0.391,1.04,0.873,1.04c0.482,0,0.873-0.466,0.873-1.04 C25.432,25.334,25.041,24.868,24.559,24.868z"/>
  <path fill="url(#WKlNfRTXgjtELKaUeg7iYb)" d="M38.95,24.423v-1.411 c0.659,0.008,1.529-0.125,1.56,0.669C40.541,24.467,39.415,24.478,38.95,24.423z M24.559,26.948c0.482,0,0.873-0.466,0.873-1.04 c0-0.574-0.391-1.04-0.873-1.04c-0.482,0-0.873,0.466-0.873,1.04C23.685,26.483,24.076,26.948,24.559,26.948z M20.134,25.908 c0-0.574-0.372-1.04-0.83-1.04c-0.459,0-0.831,0.466-0.831,1.04c0,0.574,0.372,1.04,0.831,1.04 C19.762,26.948,20.134,26.483,20.134,25.908z M37.108,37.576c-0.6,0-0.84,0-0.84,0v3.329c0,0,0.3,0.09,0.96,0.09 c0.66,0,1.32-0.66,1.32-1.829C38.548,37.996,37.708,37.576,37.108,37.576z M63.648,33.681c-1.08,4.678-0.288,12.449-0.279,12.527 c0.061,0.585-0.138,1.167-0.545,1.591c-0.378,0.395-0.901,0.617-1.444,0.617c-0.04,0-0.081-0.001-0.121-0.004l-5.258-0.32 c-0.534-0.033-1.029-0.079-1.381-0.482c-0.027-0.031-0.052-0.061-0.077-0.091c-0.328,0.228-0.724,0.357-1.139,0.357 c-0.046,0-0.093-0.002-0.14-0.005l-3.719-0.26c-0.68-0.047-1.259-0.43-1.583-0.979c-0.7,0.311-1.493,0.474-2.366,0.474 c-1.835,0-3.362-0.699-4.439-1.937c-1.18,1.054-2.64,1.537-3.769,1.576c-0.306,0.01-0.792,0.014-1.303,0.014 c-0.98,0-2.06-0.013-2.06-0.013c-0.481-0.006-0.921-0.182-1.263-0.47c-0.737,0.366-1.681,0.62-2.88,0.62 c-1.264,0-2.329-0.271-3.205-0.735c-0.326,0.312-0.758,0.516-1.241,0.55l-2.519,0.18c-0.048,0.003-0.096,0.005-0.143,0.005 c-0.27,0-0.533-0.055-0.774-0.156c-0.237,0.12-0.501,0.195-0.782,0.212l-3.239,0.2c-0.041,0.003-0.082,0.004-0.123,0.004 c-0.101,0-0.201-0.008-0.3-0.023c-0.036,0.005-0.072,0.01-0.109,0.013l-3.119,0.3c-0.035,0.003-0.07,0.006-0.105,0.007 c-0.115,0.034-0.234,0.058-0.356,0.071l-4.158,0.44c-0.07,0.007-0.141,0.011-0.21,0.011c-0.174,0-0.347-0.023-0.514-0.067 c-0.176,0.082-0.366,0.139-0.566,0.168l-4.888,0.69c-0.093,0.013-0.187,0.02-0.28,0.02c-0.546,0-1.073-0.224-1.454-0.627 c-0.445-0.471-0.634-1.13-0.507-1.765C2.555,40.067,0.712,33.2,0.693,33.132c-0.179-0.652-0.016-1.351,0.433-1.857 c0.383-0.431,0.929-0.672,1.496-0.672c0.099,0,0.199,0.007,0.299,0.023l5.158,0.78c0.147,0.022,0.288,0.06,0.422,0.112 c0.174-0.049,0.355-0.074,0.539-0.074c0.621,0,1.324,0.128,1.937,0.433c0.074-0.006,0.148-0.009,0.223-0.009 c0.352,0,0.67,0.072,0.96,0.188l0.008-0.012c-0.517-0.28-1.027-0.641-1.492-1.113c-0.833-0.845-1.818-2.36-1.781-4.774 c0.06-3.989,2.76-6.567,6.88-6.567c1.073,0,2.009,0.176,2.485,0.326c0.764,0.241,1.338,0.807,1.615,1.498 c0.733,0.086,1.419,0.337,2.025,0.715c0.78-0.476,1.69-0.749,2.661-0.749c0.461,0,0.906,0.06,1.329,0.174 c0.41-0.261,0.889-0.403,1.382-0.403c0.011,0,0.021,0,0.031,0l1.52,0.019c0.152,0.002,0.302,0.017,0.449,0.045 c0.151-0.048,0.307-0.082,0.466-0.101c0.103-0.012,0.206-0.019,0.309-0.019c0.351,0,0.697,0.072,1.016,0.209 c0.114-0.016,0.231-0.023,0.349-0.023h1.597h0.006c0.107,0,0.212,0.007,0.315,0.019c0.003,0,0.005,0,0.008,0l1.521-0.025 c0.274-0.608,0.781-1.1,1.431-1.348c0.257-0.098,1.617-0.586,3.176-0.586h0c1.867,0,3.38,0.73,4.305,1.999l0.386,0.018 c0.137,0.006,0.272,0.023,0.403,0.05c0.128-0.026,0.26-0.043,0.395-0.05l1.523-0.074c0.042-0.002,0.084-0.003,0.125-0.003 c0.263,0,0.523,0.04,0.77,0.118l1.097-0.075c0.059-0.004,0.117-0.006,0.176-0.006c0.164,0,0.326,0.016,0.484,0.046 c0.25-0.079,0.512-0.12,0.777-0.12c0.043,0,0.086,0.001,0.129,0.003l1.486,0.074c1.37,0.068,2.445,1.199,2.445,2.57v5.72 c0,1.165-0.779,2.137-1.84,2.455l1.707-0.136c0.054-0.004,0.107-0.006,0.16-0.006c0.436,0,0.847,0.142,1.182,0.388 c0.321-0.34,0.758-0.564,1.24-0.616c0.092-0.01,2.286-0.246,5.136-0.456c0.049-0.004,0.098-0.005,0.147-0.005 c0.581,0,1.137,0.253,1.518,0.698C63.631,32.412,63.79,33.062,63.648,33.681z M42.367,26.688c0,0-0.074,2.414,2.117,2.488 c2.191,0.074,2.193-2.097,2.21-2.581c0.019-0.52-0.093-3.584-0.093-3.584l-1.523,0.074l0.037,3.436 c0.025,0.867-1.009,1.007-1.003-0.037c0.005-0.891-0.074-3.398-0.074-3.398l-1.634-0.074L42.367,26.688z M37.205,21.488l0.037,7.837 l2.006-0.037l-0.037-2.674l1.188,3.008l2.043-0.891c0,0-0.891-1.634-1.448-3.045c0.891-0.334,1.318-1.467,1.151-2.507 C41.604,19.813,37.205,21.488,37.205,21.488z M33.194,28.879l3.268,0.037l0.111-1.671l-1.783-0.037l-0.037-0.78l1.671-0.037 l0.037-1.114l-1.708-0.037l0.037-0.631l1.931-0.074l0.037-1.56l-3.38,0.056L33.194,28.879z M31.337,28.879l1.56-0.037l0.111-5.831 h-1.597L31.337,28.879z M27.27,22.881l0.179,6.091l1.197-0.019l0.108-1.931l0.968,1.894l1.354-0.724l-1.374-2.581l1.467-1.857 l-1.124-0.929l-1.327,1.783L28.79,22.9L27.27,22.881z M21.903,25.908c0,1.545,1.189,2.798,2.656,2.798 c1.467,0,2.563-1.271,2.563-2.816c0-1.545-1.096-2.779-2.563-2.779C23.092,23.11,21.903,24.363,21.903,25.908z M13.657,44.723 c0,0-0.99-4.508-3.419-5.678c2.459-1.979,2.759-2.459,3.359-5.158c-0.21-0.045-0.401-0.062-0.572-0.062 c-0.634,0-0.988,0.242-0.988,0.242s-0.199-1.016-0.839-1.016c-0.182,0-0.401,0.083-0.661,0.296c-0.18-0.72-1.499-0.72-1.499-0.72 s0.3,3.119-1.2,3.898c0-1.919-0.06-3.958-0.06-3.958l-5.158-0.78c0,0,2.009,7.287,0.63,14.185l4.888-0.69v-3.539 c0.813,0.83,1.24,2.051,1.359,3.419L13.657,44.723z M17.223,29.325c0,0-0.223-1.486-0.483-2.674 c-0.854,0.26-2.971,0.409-2.711-1.597c0.26-2.006,2.786-1.263,2.786-1.263l0.669-2.266c-0.706-0.223-5.942-1.114-6.017,3.825 C11.398,29.919,16.489,29.799,17.223,29.325z M17.316,34.187l-3.059-0.18l-0.12,10.636l3.119-0.3L17.316,34.187z M19.303,28.706 c1.395,0,2.525-1.253,2.525-2.798c0-1.545-1.131-2.798-2.525-2.798c-1.395,0-2.526,1.253-2.526,2.798 C16.778,27.453,17.908,28.706,19.303,28.706z M25.293,34.787l-2.819-0.12v3.958l-1.379-3.958l-3.239-0.3v9.976l3.239-0.2 l-0.06-4.078l1.739,4.018l2.519-0.18V34.787z M33.6,39.075h-3.059v1.29c0,0,0.39,0,0.66,0c0,0.15-0.27,0.93-1.379,0.93 c-1.11,0-1.32-1.2-1.26-2.039c0.047-0.658,0.27-1.739,1.26-1.739s1.26,1.05,1.26,1.05h2.459c0,0,0.24-4.108-3.809-4.108 s-4.258,4.198-4.258,5.008s0.18,4.618,4.408,4.618C33.749,44.083,33.959,40.635,33.6,39.075z M47.446,32.745 c-9.971-0.762-19.887-0.77-29.745,0C27.85,35.17,47.446,32.745,47.446,32.745z M41.247,39.315c0-3.779-2.729-4.618-3.958-4.618 s-3.239,0-3.239,0v9.236c0,0,1.066,0.013,2.035,0.013c0.484,0,0.944-0.003,1.234-0.013C38.188,43.903,41.247,43.094,41.247,39.315z M49.433,39.045c0-1.919-1.259-4.738-4.168-4.738c-2.909,0-3.883,3.569-3.839,5.008c0.06,1.919,0.81,4.978,4.168,4.978 S49.433,40.965,49.433,39.045z M49.758,28.768h1.634v-5.72l-1.486-0.074l-0.111,2.34l-1.151-2.266L47.01,23.16v5.72l1.708,0.074 l0.037-2.897L49.758,28.768z M61.699,32.418c-2.849,0.21-5.068,0.45-5.068,0.45l-1.679,4.588l-0.96-4.348l-4.138,0.33l-0.17,11.366 l3.719,0.26l0.32-0.86c0,0-1.29-1.02-0.45-6.088c0.72,1.529,1.589,3.119,1.589,3.119l2.189-3.599c0,0,0.21,3.209-0.06,4.828 s-0.61,1.619-1.19,1.879c0.3,0.78,0.32,0.94,0.32,0.94l5.258,0.32C61.379,45.603,60.529,37.486,61.699,32.418z M46.445,38.346 c-0.101,0-0.195,0.026-0.284,0.064c0.038-0.089,0.064-0.183,0.064-0.284c0-0.442-0.398-0.8-0.89-0.8c-0.491,0-0.89,0.358-0.89,0.8 c0,0.101,0.026,0.195,0.064,0.284c-0.089-0.038-0.183-0.064-0.284-0.064c-0.442,0-0.8,0.398-0.8,0.89c0,0.491,0.358,0.89,0.8,0.89 c0.101,0,0.195-0.026,0.284-0.064c-0.038,0.089-0.064,0.183-0.064,0.284c0,0.442,0.398,0.8,0.89,0.8c0.491,0,0.89-0.358,0.89-0.8 c0-0.101-0.026-0.195-0.064-0.284c0.089,0.038,0.183,0.064,0.284,0.064c0.442,0,0.8-0.398,0.8-0.89 C47.244,38.744,46.886,38.346,46.445,38.346z"/>
  <path fill="#70c6ff" d="M31.729,14.736l0.236,1.285l-0.918,1.154l-0.656-0.63l-0.393,0.839c0,0-0.63-0.708-1.18-1.364 c0.184-0.839,1.128-1.521,1.128-1.521C30.47,14.972,31.729,14.736,31.729,14.736z M34.51,14.5c-0.525,0.472-1.784,0.236-1.784,0.236 l-0.223,1.3l0.905,1.139l0.656-0.63l0.393,0.839c0,0,0.63-0.708,1.18-1.364C35.454,15.182,34.51,14.5,34.51,14.5z"/>
</svg>